<svg width="55" height="66" viewBox="0 0 55 66" fill="none" xmlns="http://www.w3.org/2000/svg">
<g clip-path="url(#clip0_959_4310)">
<path d="M43.1836 33.9458C43.7765 33.9458 44.2578 33.4645 44.2578 32.8716C44.2578 32.2787 43.7765 31.7974 43.1836 31.7974C42.5907 31.7974 42.1094 32.2787 42.1094 32.8716C42.1094 33.4645 42.5907 33.9458 43.1836 33.9458Z" fill="#EC9200"/>
<path d="M11.8165 33.9458C12.4094 33.9458 12.8907 33.4645 12.8907 32.8716C12.8907 32.2787 12.4094 31.7974 11.8165 31.7974C11.2236 31.7974 10.7423 32.2787 10.7423 32.8716C10.7423 33.4645 11.2236 33.9458 11.8165 33.9458Z" fill="#EC9200"/>
<path d="M16.5435 33.471C16.0828 33.0976 15.4063 33.1685 15.0329 33.6296C14.6594 34.0904 14.7303 34.7668 15.1911 35.1403C16.46 36.1683 17.1876 37.6903 17.1876 39.3159C17.1876 42.2775 14.7782 44.687 11.8165 44.687C11.2232 44.687 10.7423 45.1678 10.7423 45.7612C10.7423 46.3545 11.2232 46.8354 11.8165 46.8354C15.9628 46.8354 19.3361 43.4621 19.3361 39.3159C19.3361 37.039 18.3181 34.9086 16.5435 33.471Z" fill="#EC9200"/>
<path d="M53.1713 33.0008C42.8416 10.2383 43.3158 11.2496 43.2348 11.1233C42.4598 9.92023 41.2949 9.0084 39.9609 8.53465V8.16455C39.9609 5.79539 38.0332 3.86768 35.6641 3.86768C33.2949 3.86768 31.3672 5.79539 31.3672 8.16455V16.7583H23.6328C23.6328 15.7567 23.6328 9.47124 23.6328 8.16455C23.6328 5.79539 21.7051 3.86768 19.3359 3.86768C16.9668 3.86768 15.0391 5.79539 15.0391 8.16455V8.53465C13.7043 9.00882 12.5402 9.92065 11.7652 11.1233C11.6846 11.2483 12.1613 10.2324 1.82827 33.0012C0.627327 34.9013 0 37.0661 0 39.3169C0 45.8323 5.30102 51.1333 11.8164 51.1333C18.3318 51.1333 23.6328 45.8323 23.6328 39.3169V36.0942H31.3672V39.3169C31.3672 45.8323 36.6682 51.1333 43.1836 51.1333C49.699 51.1333 55 45.8323 55 39.3169C55 37.0698 54.3744 34.9034 53.1713 33.0008ZM33.5156 23.2036C33.5156 19.6495 36.4068 16.7583 39.9609 16.7583C41.5014 16.7583 42.9784 17.3059 44.1449 18.3025L49.0125 29.0329C47.2652 28.0426 45.2674 27.5005 43.1836 27.5005C39.1914 27.5005 35.6561 29.4907 33.5156 32.5309V23.2036ZM41.3876 12.2248L42.6679 15.0463C41.8031 14.7597 40.8908 14.6099 39.9609 14.6099C37.3958 14.6099 35.0917 15.7407 33.5156 17.5283C33.5156 15.8591 33.5156 16.2468 33.5156 14.6099C33.5156 12.2407 35.4433 10.313 37.8125 10.313C39.2631 10.313 40.5988 11.0461 41.3876 12.2248ZM35.6641 6.01611C36.8486 6.01611 37.8125 6.97997 37.8125 8.16455C36.163 8.16455 34.657 8.7881 33.5156 9.81113V8.16455C33.5156 6.97997 34.4795 6.01611 35.6641 6.01611ZM31.3672 18.9067V29.6489H23.6328V18.9067H31.3672ZM10.8551 18.3025C12.0216 17.3059 13.4986 16.7583 15.0391 16.7583C18.5932 16.7583 21.4844 19.6495 21.4844 23.2036V32.5309C19.3439 29.4907 15.8086 27.5005 11.8164 27.5005C9.73259 27.5005 7.73479 28.0426 5.98751 29.0333L10.8551 18.3025ZM19.3359 6.01611C20.5205 6.01611 21.4844 6.97997 21.4844 8.16455V9.81113C20.343 8.7881 18.837 8.16455 17.1875 8.16455C17.1875 6.97997 18.1514 6.01611 19.3359 6.01611ZM13.6124 12.2248C14.4008 11.0465 15.736 10.313 17.1875 10.313C19.5567 10.313 21.4844 12.2407 21.4844 14.6099V17.5283C19.9083 15.7407 17.6042 14.6099 15.0391 14.6099C14.1096 14.6099 13.1969 14.7597 12.3321 15.0463L13.6124 12.2248ZM11.8164 48.9849C6.4856 48.9849 2.14844 44.6477 2.14844 39.3169C2.14844 37.4517 2.67422 35.6591 3.67878 34.0943C3.6792 34.0935 3.67962 34.0927 3.68004 34.0918C3.68046 34.0914 3.68088 34.091 3.68088 34.0906C5.47264 31.3093 8.51402 29.6489 11.8164 29.6489C17.1472 29.6489 21.4844 33.9861 21.4844 39.3169C21.4844 44.6477 17.1472 48.9849 11.8164 48.9849ZM23.6328 33.9458V31.7974H31.3672V33.9458H23.6328ZM43.1836 48.9849C37.8528 48.9849 33.5156 44.6477 33.5156 39.3169C33.5156 33.9861 37.8528 29.6489 43.1836 29.6489C46.486 29.6489 49.5269 31.3089 51.3187 34.0901C51.3191 34.091 51.3195 34.0918 51.3204 34.0922C51.3204 34.0927 51.3208 34.0931 51.3212 34.0939C52.3245 35.6578 52.8516 37.45 52.8516 39.3169C52.8516 44.6477 48.5144 48.9849 43.1836 48.9849Z" fill="#0B2E66"/>
<path d="M47.9123 33.466C47.4515 33.0921 46.7747 33.1631 46.4012 33.6238C46.0278 34.0845 46.0983 34.761 46.559 35.1348C47.778 36.123 48.5547 37.624 48.5547 39.3159C48.5547 42.2776 46.1452 44.687 43.1836 44.687C42.5903 44.687 42.1094 45.1679 42.1094 45.7612C42.1094 46.3546 42.5903 46.8354 43.1836 46.8354C47.3298 46.8354 50.7031 43.4621 50.7031 39.3159C50.7031 36.9711 49.6297 34.8592 47.9123 33.466Z" fill="#EC9200"/>
</g>
<path d="M5.4895 64.7778L49.5108 64.7778" stroke="#EC9200" stroke-width="2.22126" stroke-linecap="round"/>
<defs>
<clipPath id="clip0_959_4310">
<rect width="55" height="55" fill="white"/>
</clipPath>
</defs>
</svg>
