<svg width="51" height="49" viewBox="0 0 51 49" fill="none" xmlns="http://www.w3.org/2000/svg">
<path d="M26.6312 23.6201C26.4297 22.8138 26.3121 22.1587 26.0937 21.5204C23.91 15.07 20.3992 9.32518 16.4014 3.8659C15.931 3.22759 15.3431 2.62287 14.688 2.21972C14.3352 2.00135 13.6297 2.03495 13.2266 2.25332C12.9242 2.4213 12.7059 3.07641 12.7731 3.44596C12.8906 4.15147 13.1426 4.87377 13.4954 5.51209C15.8135 9.72833 18.1483 13.9278 20.5168 18.1104C21.4071 19.6726 22.3478 21.218 23.2717 22.7634C23.574 23.2841 23.91 23.7881 24.2627 24.2584C24.6491 24.7959 25.237 25.1151 25.8249 24.7623C26.2113 24.5272 26.6312 24.3592 26.6312 23.6201Z" fill="black"/>
<path d="M2.84554 48.6325C3.65184 48.4982 4.59251 48.3974 5.4996 48.1958C9.07752 47.3895 12.6555 46.5832 16.2166 45.7433C16.9893 45.5586 17.7452 45.2394 18.4339 44.8699C19.3578 44.3827 19.6769 43.694 19.5257 42.9381C19.3746 42.1822 18.7698 41.7119 17.7116 41.6951C16.9893 41.6783 16.2166 41.6951 15.5279 41.863C11.0093 43.0053 6.49066 44.1811 1.98886 45.3738C1.48493 45.5082 0.964195 45.7433 0.577847 46.0793C-0.396425 46.9024 -0.0940647 48.1958 1.14897 48.515C1.63611 48.6325 2.19043 48.5822 2.84554 48.6325Z" fill="black"/>
<path d="M50.0473 3.59751C49.9801 2.80802 49.8121 2.01852 49.6105 1.24583C49.4258 0.557116 48.9554 0.0699809 48.1995 0.00278982C47.5612 -0.0476035 46.8725 0.590713 46.7717 1.4306C46.6373 2.55605 46.5198 3.6983 46.5702 4.82375C46.7213 8.21691 46.9397 11.6269 47.1749 15.02C47.2589 16.1455 47.41 17.2709 47.5948 18.3964C47.662 18.7827 47.7964 19.1859 48.0148 19.4882C48.6027 20.3449 49.6777 20.2777 50.0977 19.3538C50.3329 18.8331 50.4336 18.1948 50.4336 17.6237C50.5176 15.7423 50.2657 6.38595 50.0473 3.59751Z" fill="black"/>
</svg>
