<svg width="23" height="23" viewBox="0 0 23 23" fill="none" xmlns="http://www.w3.org/2000/svg">
<path fill-rule="evenodd" clip-rule="evenodd" d="M5.02598 2.81494H18.1619C19.1983 2.81494 20.0385 3.65511 20.0385 4.6915V17.8274C20.0385 18.8639 19.1983 19.704 18.1619 19.704H5.02598C3.98958 19.704 3.14941 18.8639 3.14941 17.8274V4.6915C3.14941 3.65511 3.98958 2.81494 5.02598 2.81494ZM7.84082 16.8892C8.09992 16.8892 8.30996 16.6791 8.30996 16.42V9.85205C8.30996 9.59299 8.09992 9.38291 7.84082 9.38291H6.4334C6.1743 9.38291 5.96426 9.59299 5.96426 9.85205V16.42C5.96426 16.6791 6.1743 16.8892 6.4334 16.8892H7.84082ZM7.13711 8.44463C6.35981 8.44463 5.72969 7.81451 5.72969 7.03721C5.72969 6.25991 6.35981 5.62979 7.13711 5.62979C7.91441 5.62979 8.54453 6.25991 8.54453 7.03721C8.54453 7.81451 7.91441 8.44463 7.13711 8.44463ZM16.7545 16.8892C17.0136 16.8892 17.2236 16.6791 17.2236 16.42V12.1039C17.2541 10.6128 16.1517 9.34024 14.6715 9.15772C13.6366 9.06319 12.6338 9.54655 12.0631 10.415V9.85205C12.0631 9.59299 11.853 9.38291 11.5939 9.38291H10.1865C9.92746 9.38291 9.71738 9.59299 9.71738 9.85205V16.42C9.71738 16.6791 9.92746 16.8892 10.1865 16.8892H11.5939C11.853 16.8892 12.0631 16.6791 12.0631 16.42V12.9015C12.0631 12.1242 12.6932 11.494 13.4705 11.494C14.2478 11.494 14.8779 12.1242 14.8779 12.9015V16.42C14.8779 16.6791 15.088 16.8892 15.3471 16.8892H16.7545Z" fill="#0B2E66"/>
</svg>
