<svg width="24" height="23" viewBox="0 0 24 23" fill="none" xmlns="http://www.w3.org/2000/svg">
<path fill-rule="evenodd" clip-rule="evenodd" d="M15.7907 2.81494H8.28442C5.69344 2.81494 3.59302 4.91536 3.59302 7.50635V15.0126C3.59302 17.6036 5.69344 19.704 8.28442 19.704H15.7907C18.3816 19.704 20.4821 17.6036 20.4821 15.0126V7.50635C20.4821 4.91536 18.3816 2.81494 15.7907 2.81494ZM18.8401 15.0126C18.8349 16.6946 17.4726 18.0569 15.7907 18.062H8.28442C6.60241 18.0569 5.24016 16.6946 5.23501 15.0126V7.50635C5.24016 5.82434 6.60241 4.46208 8.28442 4.45693H15.7907C17.4726 4.46208 18.8349 5.82434 18.8401 7.50635V15.0126ZM16.4944 7.74092C17.0126 7.74092 17.4327 7.32083 17.4327 6.80264C17.4327 6.28444 17.0126 5.86436 16.4944 5.86436C15.9762 5.86436 15.5561 6.28444 15.5561 6.80264C15.5561 7.32083 15.9762 7.74092 16.4944 7.74092ZM12.0375 7.03721C9.70566 7.03721 7.81528 8.92758 7.81528 11.2595C7.81528 13.5914 9.70566 15.4817 12.0375 15.4817C14.3695 15.4817 16.2598 13.5914 16.2598 11.2595C16.2623 10.1389 15.8183 9.06349 15.0259 8.27112C14.2335 7.47875 13.1581 7.03471 12.0375 7.03721ZM9.45728 11.2595C9.45728 12.6845 10.6125 13.8397 12.0375 13.8397C13.4626 13.8397 14.6178 12.6845 14.6178 11.2595C14.6178 9.83441 13.4626 8.6792 12.0375 8.6792C10.6125 8.6792 9.45728 9.83441 9.45728 11.2595Z" fill="#0B2E66"/>
</svg>
