<svg width="23" height="23" viewBox="0 0 23 23" fill="none" xmlns="http://www.w3.org/2000/svg">
<path d="M15.4815 5.62979H12.6667C12.1485 5.62979 11.7284 6.04987 11.7284 6.56807V9.38291H15.4815C15.5882 9.38055 15.6895 9.4302 15.7529 9.51605C15.8163 9.60191 15.8341 9.71319 15.8006 9.81452L15.1062 11.8787C15.0422 12.0682 14.8652 12.1963 14.6652 12.1978H11.7284V19.2349C11.7284 19.4939 11.5183 19.704 11.2593 19.704H8.91357C8.65448 19.704 8.44443 19.4939 8.44443 19.2349V12.1978H7.03701C6.77791 12.1978 6.56787 11.9877 6.56787 11.7286V9.85205C6.56787 9.59299 6.77791 9.38291 7.03701 9.38291H8.44443V6.56807C8.44443 4.49527 10.1248 2.81494 12.1976 2.81494H15.4815C15.7406 2.81494 15.9507 3.02499 15.9507 3.28408V5.16064C15.9507 5.41974 15.7406 5.62979 15.4815 5.62979Z" fill="#0B2E66"/>
</svg>
