<svg width="24" height="23" viewBox="0 0 24 23" fill="none" xmlns="http://www.w3.org/2000/svg">
<path d="M20.2345 6.30271C19.7987 6.884 19.272 7.39106 18.6746 7.8043C18.6746 7.95614 18.6746 8.10799 18.6746 8.26827C18.6794 11.0257 17.5779 13.6698 15.6172 15.6077C13.6564 17.5457 11.0003 18.6153 8.2444 18.5768C6.65114 18.5822 5.07828 18.2184 3.64905 17.514C3.57198 17.4803 3.52227 17.4041 3.52257 17.3199V17.2271C3.52257 17.106 3.62072 17.0078 3.7418 17.0078C5.30793 16.9561 6.81818 16.4132 8.05889 15.4556C6.64133 15.427 5.36588 14.5873 4.77891 13.296C4.74927 13.2255 4.75849 13.1446 4.80327 13.0825C4.84805 13.0205 4.9219 12.9864 4.99814 12.9924C5.42897 13.0356 5.8641 12.9956 6.27978 12.8742C4.71491 12.5494 3.53907 11.2503 3.37079 9.66017C3.36481 9.58388 3.39899 9.51004 3.461 9.46519C3.52299 9.42044 3.60384 9.41115 3.67434 9.44089C4.09428 9.6262 4.54761 9.72378 5.00657 9.72763C3.63537 8.82769 3.04309 7.11588 3.56472 5.56037C3.61857 5.40922 3.74793 5.29755 3.90527 5.26642C4.0626 5.23528 4.22472 5.28926 4.33202 5.40852C6.18238 7.37784 8.72479 8.55136 11.4232 8.68162C11.3541 8.40583 11.3201 8.12238 11.322 7.83804C11.3472 6.34711 12.2698 5.01897 13.6577 4.47538C15.0455 3.93181 16.624 4.28037 17.6544 5.3579C18.3566 5.22411 19.0355 4.98823 19.6695 4.65773C19.716 4.62874 19.7749 4.62874 19.8213 4.65773C19.8503 4.70419 19.8503 4.76311 19.8213 4.80957C19.5142 5.51279 18.9955 6.1026 18.3373 6.49674C18.9136 6.42991 19.4798 6.29396 20.0237 6.09183C20.0695 6.06066 20.1297 6.06066 20.1754 6.09183C20.2138 6.10937 20.2425 6.14293 20.2539 6.18357C20.2652 6.22421 20.2581 6.26779 20.2345 6.30271Z" fill="#0B2E66"/>
</svg>
